<svg width="108" height="124" fill="none" xmlns="http://www.w3.org/2000/svg"><path d="M107.779 119.924l-9.425-89.748a3.691 3.691 0 00-3.67-3.305H76.97v-4.04C76.97 10.244 66.727 0 54.138 0c-12.59 0-22.833 10.243-22.833 22.832v4.038H13.592a3.691 3.691 0 00-3.671 3.306L.497 119.924A3.693 3.693 0 004.167 124h99.94a3.69 3.69 0 003.672-4.076zM38.686 22.832c0-8.52 6.932-15.451 15.452-15.451s15.45 6.932 15.45 15.45v4.04H38.687v-4.04zm-30.42 93.787l8.65-82.368h14.39v8.134a3.691 3.691 0 007.38 0v-8.133H69.59v8.133a3.691 3.691 0 007.38 0v-8.133h14.39l8.65 82.367H8.265z" fill="#000"/><path d="M107.779 119.924l-9.425-89.748a3.691 3.691 0 00-3.67-3.305H76.97v-4.04C76.97 10.244 66.727 0 54.138 0c-12.59 0-22.833 10.243-22.833 22.832v4.038H13.592a3.691 3.691 0 00-3.671 3.306L.497 119.924A3.693 3.693 0 004.167 124h99.94a3.69 3.69 0 003.672-4.076zM38.686 22.832c0-8.52 6.932-15.451 15.452-15.451s15.45 6.932 15.45 15.45v4.04H38.687v-4.04zm-30.42 93.787l8.65-82.368h14.39v8.134a3.691 3.691 0 007.38 0v-8.133H69.59v8.133a3.691 3.691 0 007.38 0v-8.133h14.39l8.65 82.367H8.265z" fill="url(#paint0_linear)"/><defs><linearGradient id="paint0_linear" x1="54.138" y1="0" x2="54.138" y2="124" gradientUnits="userSpaceOnUse"><stop stop-color="#CA48F6"/><stop offset="1" stop-color="#2E2094"/></linearGradient></defs></svg>