<svg width="124" height="124" fill="none" xmlns="http://www.w3.org/2000/svg"><path d="M62 124c-16.56 0-32.13-6.449-43.84-18.159C6.448 94.131 0 78.561 0 62c0-16.56 6.45-32.13 18.16-43.84C29.87 6.448 45.44 0 62 0c16.56 0 32.13 6.449 43.841 18.16C117.551 29.87 124 45.44 124 62c0 16.56-6.449 32.13-18.159 43.841C94.131 117.551 78.561 124 62 124zM62 7.75C32.087 7.75 7.75 32.087 7.75 62S32.087 116.25 62 116.25 116.25 91.913 116.25 62 91.913 7.75 62 7.75z" fill="url(#paint0_linear)"/><path d="M62 58.125c-5.342 0-9.688-4.346-9.688-9.688 0-5.341 4.346-9.687 9.688-9.687 5.342 0 9.688 4.346 9.688 9.688a3.875 3.875 0 007.75 0c0-8.284-5.808-15.231-13.563-16.999v-4.314a3.875 3.875 0 00-7.75 0v4.314c-7.755 1.768-13.563 8.715-13.563 16.998 0 9.616 7.823 17.438 17.438 17.438 5.342 0 9.688 4.346 9.688 9.688 0 5.341-4.346 9.687-9.688 9.687-5.342 0-9.688-4.346-9.688-9.688a3.875 3.875 0 00-7.75 0c0 8.284 5.808 15.231 13.563 16.999v4.314a3.875 3.875 0 007.75 0v-4.314c7.755-1.768 13.563-8.715 13.563-16.999 0-9.615-7.823-17.437-17.438-17.437z" fill="url(#paint1_linear)"/><defs><linearGradient id="paint0_linear" x1="62" y1="0" x2="62" y2="124" gradientUnits="userSpaceOnUse"><stop stop-color="#CA48F6"/><stop offset="1" stop-color="#2E2094"/></linearGradient><linearGradient id="paint1_linear" x1="62" y1="23.25" x2="62" y2="100.75" gradientUnits="userSpaceOnUse"><stop stop-color="#CA48F6"/><stop offset="1" stop-color="#2E2094"/></linearGradient></defs></svg>