<svg width="124" height="114" fill="none" xmlns="http://www.w3.org/2000/svg"><path d="M107.34 16.791C96.599 6.051 82.312.131 67.131.131c-15.46 0-29.926 6.098-40.719 17.17-1.173 1.2-1.148 3.139.052 4.338 1.199 1.174 3.138 1.148 4.337-.051C40.445 11.714 53.329 6.28 67.13 6.28c27.99-.025 50.747 22.732 50.747 50.72s-22.758 50.746-50.746 50.746c-27.987 0-50.745-22.758-50.745-50.746v-.638l5.051 5.052a3.072 3.072 0 002.169.893 3.12 3.12 0 002.169-.893 3.064 3.064 0 000-4.337L15.518 46.795a3.064 3.064 0 00-4.337 0L.9 57.077a3.064 3.064 0 000 4.337 3.065 3.065 0 004.338 0l5.051-5.052V57c0 15.18 5.92 29.468 16.66 40.209 10.741 10.741 25.029 16.66 40.209 16.66 15.18 0 29.468-5.919 40.208-16.66C118.106 86.468 124 72.18 124 57c0-15.18-5.919-29.468-16.66-40.209z" fill="#000"/><path d="M107.34 16.791C96.599 6.051 82.312.131 67.131.131c-15.46 0-29.926 6.098-40.719 17.17-1.173 1.2-1.148 3.139.052 4.338 1.199 1.174 3.138 1.148 4.337-.051C40.445 11.714 53.329 6.28 67.13 6.28c27.99-.025 50.747 22.732 50.747 50.72s-22.758 50.746-50.746 50.746c-27.987 0-50.745-22.758-50.745-50.746v-.638l5.051 5.052a3.072 3.072 0 002.169.893 3.12 3.12 0 002.169-.893 3.064 3.064 0 000-4.337L15.518 46.795a3.064 3.064 0 00-4.337 0L.9 57.077a3.064 3.064 0 000 4.337 3.065 3.065 0 004.338 0l5.051-5.052V57c0 15.18 5.92 29.468 16.66 40.209 10.741 10.741 25.029 16.66 40.209 16.66 15.18 0 29.468-5.919 40.208-16.66C118.106 86.468 124 72.18 124 57c0-15.18-5.919-29.468-16.66-40.209z" fill="url(#paint0_linear)"/><path d="M83.409 36.309l-37.607 37.58a3.064 3.064 0 000 4.338 3.072 3.072 0 002.169.893 3.12 3.12 0 002.169-.893L87.746 40.62a3.065 3.065 0 000-4.338 3.088 3.088 0 00-4.337.026z" fill="#000"/><path d="M83.409 36.309l-37.607 37.58a3.064 3.064 0 000 4.338 3.072 3.072 0 002.169.893 3.12 3.12 0 002.169-.893L87.746 40.62a3.065 3.065 0 000-4.338 3.088 3.088 0 00-4.337.026z" fill="url(#paint1_linear)"/><path d="M73.56 61.618c-4.26 4.26-4.26 11.226 0 15.486a10.904 10.904 0 007.757 3.215c2.934 0 5.689-1.148 7.756-3.215 4.26-4.26 4.26-11.225 0-15.486a10.904 10.904 0 00-7.756-3.215c-2.934 0-5.664 1.148-7.756 3.215zm11.175 11.175a4.762 4.762 0 01-3.418 1.403c-1.302 0-2.5-.51-3.42-1.403a4.835 4.835 0 010-6.838 4.762 4.762 0 013.42-1.403c1.3 0 2.5.51 3.418 1.403a4.835 4.835 0 010 6.838z" fill="#000"/><path d="M73.56 61.618c-4.26 4.26-4.26 11.226 0 15.486a10.904 10.904 0 007.757 3.215c2.934 0 5.689-1.148 7.756-3.215 4.26-4.26 4.26-11.225 0-15.486a10.904 10.904 0 00-7.756-3.215c-2.934 0-5.664 1.148-7.756 3.215zm11.175 11.175a4.762 4.762 0 01-3.418 1.403c-1.302 0-2.5-.51-3.42-1.403a4.835 4.835 0 010-6.838 4.762 4.762 0 013.42-1.403c1.3 0 2.5.51 3.418 1.403a4.835 4.835 0 010 6.838z" fill="url(#paint2_linear)"/><path d="M53.048 33.58a10.9 10.9 0 00-7.756 3.214 10.904 10.904 0 00-3.215 7.756c0 2.934 1.148 5.69 3.215 7.756a10.904 10.904 0 007.756 3.214c2.934 0 5.69-1.148 7.756-3.214a10.904 10.904 0 003.215-7.756c0-2.934-1.148-5.69-3.215-7.756-2.092-2.067-4.822-3.215-7.756-3.215zm3.419 14.389a4.762 4.762 0 01-3.419 1.403c-1.301 0-2.5-.51-3.419-1.404a4.762 4.762 0 01-1.403-3.418c0-1.301.51-2.5 1.403-3.42a4.762 4.762 0 013.42-1.402c1.3 0 2.5.51 3.418 1.403a4.762 4.762 0 011.403 3.419 4.81 4.81 0 01-1.403 3.419z" fill="#000"/><path d="M53.048 33.58a10.9 10.9 0 00-7.756 3.214 10.904 10.904 0 00-3.215 7.756c0 2.934 1.148 5.69 3.215 7.756a10.904 10.904 0 007.756 3.214c2.934 0 5.69-1.148 7.756-3.214a10.904 10.904 0 003.215-7.756c0-2.934-1.148-5.69-3.215-7.756-2.092-2.067-4.822-3.215-7.756-3.215zm3.419 14.389a4.762 4.762 0 01-3.419 1.403c-1.301 0-2.5-.51-3.419-1.404a4.762 4.762 0 01-1.403-3.418c0-1.301.51-2.5 1.403-3.42a4.762 4.762 0 013.42-1.402c1.3 0 2.5.51 3.418 1.403a4.762 4.762 0 011.403 3.419 4.81 4.81 0 01-1.403 3.419z" fill="url(#paint3_linear)"/><defs><linearGradient id="paint0_linear" x1="62" y1=".131" x2="62" y2="113.869" gradientUnits="userSpaceOnUse"><stop stop-color="#CA48F6"/><stop offset="1" stop-color="#2E2094"/></linearGradient><linearGradient id="paint1_linear" x1="66.774" y1="35.406" x2="66.774" y2="79.12" gradientUnits="userSpaceOnUse"><stop stop-color="#CA48F6"/><stop offset="1" stop-color="#2E2094"/></linearGradient><linearGradient id="paint2_linear" x1="81.317" y1="58.403" x2="81.317" y2="80.319" gradientUnits="userSpaceOnUse"><stop stop-color="#CA48F6"/><stop offset="1" stop-color="#2E2094"/></linearGradient><linearGradient id="paint3_linear" x1="53.048" y1="33.579" x2="53.048" y2="55.52" gradientUnits="userSpaceOnUse"><stop stop-color="#CA48F6"/><stop offset="1" stop-color="#2E2094"/></linearGradient></defs></svg>