<svg width="124" height="100" fill="none" xmlns="http://www.w3.org/2000/svg"><path d="M123.495 28.884l-20.754-26.96a2.432 2.432 0 00-3.232-.568l-13.4 8.522H68.633a2.41 2.41 0 00-.67.111l-13.55 3.901-14.06-3.846-13.661-8.688a2.43 2.43 0 00-3.197.524L.539 30.314a2.43 2.43 0 00.307 3.37L12.878 44.04l10.794 14.546c-3.157 3.363-3.096 8.668.19 11.953a8.556 8.556 0 005.21 2.469c-.065.43-.1.869-.1 1.314 0 2.295.895 4.453 2.517 6.075a8.537 8.537 0 006.077 2.517l.091-.002c0 .058-.003.116-.003.175a8.54 8.54 0 002.516 6.076 8.54 8.54 0 006.076 2.517 8.77 8.77 0 001.342-.105 8.549 8.549 0 002.471 5.231 8.562 8.562 0 006.076 2.513c2.2 0 4.4-.837 6.076-2.513l1.314-1.314.552.445a8.563 8.563 0 005.975 2.413c2.2 0 4.4-.837 6.075-2.513a8.568 8.568 0 002.512-6.21 8.577 8.577 0 008.723-8.718 8.544 8.544 0 006.21-2.516 8.568 8.568 0 002.511-6.21 8.571 8.571 0 006.211-2.512c2.918-2.918 3.293-7.428 1.13-10.757l7.881-16.506 11.849-10.197a2.431 2.431 0 00.341-3.326zm-97.58-22.26l9.823 6.247-21.37 26.035-8.564-7.37 20.11-24.912zm1.385 55.2l2.965-2.965a3.722 3.722 0 012.306-1.077l.064-.002c.106-.009.212-.014.319-.013a3.71 3.71 0 012.66 1.168c1.373 1.452 1.3 3.825-.165 5.29l-2.875 2.874a3.734 3.734 0 01-5.274 0 3.735 3.735 0 010-5.275zm7.628 15.133a3.702 3.702 0 01-1.093-2.636c0-.997.388-1.933 1.093-2.638l5.75-5.75a3.77 3.77 0 014.24-.731c1.45.691 2.267 2.266 2.054 3.851a3.935 3.935 0 01-1.11 2.247l-5.659 5.657a3.705 3.705 0 01-2.637 1.093 3.705 3.705 0 01-2.638-1.093zm8.68 8.765a3.702 3.702 0 01-1.092-2.636c0-.996.388-1.933 1.093-2.638l5.748-5.749c1.178-1.177 3.067-1.43 4.509-.591 1.317.766 2.007 2.27 1.78 3.769a3.94 3.94 0 01-1.105 2.188l-5.657 5.657a3.705 3.705 0 01-2.638 1.093 3.705 3.705 0 01-2.637-1.093zm9.889 7.644a3.734 3.734 0 010-5.274l2.965-2.965a3.944 3.944 0 01.286-.259 3.718 3.718 0 011.654-.768l.043-.006a3.51 3.51 0 01.316-.043c.042-.004.085-.004.128-.007.087-.005.174-.01.261-.01a3.706 3.706 0 012.901 1.452c1.118 1.461.968 3.633-.42 5.021l-2.86 2.86a3.734 3.734 0 01-5.274 0zm45.358-27.135a3.733 3.733 0 01-5.274 0 2.237 2.237 0 00-.166-.149L77.781 50.283a2.431 2.431 0 00-3.457 3.421l15.804 15.969.005.005a3.735 3.735 0 010 5.276 3.705 3.705 0 01-2.637 1.092 3.702 3.702 0 01-2.638-1.093l-10.572-10.68a2.43 2.43 0 10-3.456 3.42l10.41 10.519c.054.066.11.13.171.19a3.735 3.735 0 010 5.275 3.736 3.736 0 01-5.276 0l-5.77-5.831a2.431 2.431 0 10-3.457 3.42l5.61 5.666c.052.067.109.13.17.192a3.735 3.735 0 010 5.275 3.733 3.733 0 01-5.274 0c-.167-.168-.364-.296-.551-.44-.16-.121-.2-.206-.121-.399.08-.195.2-.372.28-.57.09-.219.161-.445.231-.672a8.765 8.765 0 00.315-3.74 8.556 8.556 0 00-3.631-5.918 8.536 8.536 0 00-3.617-1.402c.626-2.762-.126-5.758-2.082-7.825a8.529 8.529 0 00-6.382-2.687c.053-2.233-.76-4.452-2.298-6.078a8.532 8.532 0 00-6.125-2.688 8.741 8.741 0 00-2.075.22 8.527 8.527 0 00-2.842-5.21 8.523 8.523 0 00-5.495-2.085 8.612 8.612 0 00-5.87 2.208l-9.4-12.665 22.486-27.393 7.166 1.96-9.359 16.515a8.535 8.535 0 00-.805 6.527 8.534 8.534 0 004.424 5.388l.03.014a8.537 8.537 0 006.12.59 8.539 8.539 0 005.183-4.046l6.083-10.733 10.86.77 28.917 28.917a3.736 3.736 0 010 5.275zm1.008-11.145L72.735 27.959a2.433 2.433 0 00-1.547-.706l-13.297-.943a2.471 2.471 0 00-2.287 1.227l-6.838 12.068a3.706 3.706 0 01-2.25 1.755 3.706 3.706 0 01-2.834-.35 3.706 3.706 0 01-1.756-2.25 3.702 3.702 0 01.35-2.834l9.128-16.11 3.7-1.064.072-.025 13.806-3.986h16.68l20.825 26.472-6.624 13.873zm9.809-17.69L90.415 12.902l9.828-6.25 17.995 23.374-8.566 7.37z" fill="#000"/><path d="M123.495 28.884l-20.754-26.96a2.432 2.432 0 00-3.232-.568l-13.4 8.522H68.633a2.41 2.41 0 00-.67.111l-13.55 3.901-14.06-3.846-13.661-8.688a2.43 2.43 0 00-3.197.524L.539 30.314a2.43 2.43 0 00.307 3.37L12.878 44.04l10.794 14.546c-3.157 3.363-3.096 8.668.19 11.953a8.556 8.556 0 005.21 2.469c-.065.43-.1.869-.1 1.314 0 2.295.895 4.453 2.517 6.075a8.537 8.537 0 006.077 2.517l.091-.002c0 .058-.003.116-.003.175a8.54 8.54 0 002.516 6.076 8.54 8.54 0 006.076 2.517 8.77 8.77 0 001.342-.105 8.549 8.549 0 002.471 5.231 8.562 8.562 0 006.076 2.513c2.2 0 4.4-.837 6.076-2.513l1.314-1.314.552.445a8.563 8.563 0 005.975 2.413c2.2 0 4.4-.837 6.075-2.513a8.568 8.568 0 002.512-6.21 8.577 8.577 0 008.723-8.718 8.544 8.544 0 006.21-2.516 8.568 8.568 0 002.511-6.21 8.571 8.571 0 006.211-2.512c2.918-2.918 3.293-7.428 1.13-10.757l7.881-16.506 11.849-10.197a2.431 2.431 0 00.341-3.326zm-97.58-22.26l9.823 6.247-21.37 26.035-8.564-7.37 20.11-24.912zm1.385 55.2l2.965-2.965a3.722 3.722 0 012.306-1.077l.064-.002c.106-.009.212-.014.319-.013a3.71 3.71 0 012.66 1.168c1.373 1.452 1.3 3.825-.165 5.29l-2.875 2.874a3.734 3.734 0 01-5.274 0 3.735 3.735 0 010-5.275zm7.628 15.133a3.702 3.702 0 01-1.093-2.636c0-.997.388-1.933 1.093-2.638l5.75-5.75a3.77 3.77 0 014.24-.731c1.45.691 2.267 2.266 2.054 3.851a3.935 3.935 0 01-1.11 2.247l-5.659 5.657a3.705 3.705 0 01-2.637 1.093 3.705 3.705 0 01-2.638-1.093zm8.68 8.765a3.702 3.702 0 01-1.092-2.636c0-.996.388-1.933 1.093-2.638l5.748-5.749c1.178-1.177 3.067-1.43 4.509-.591 1.317.766 2.007 2.27 1.78 3.769a3.94 3.94 0 01-1.105 2.188l-5.657 5.657a3.705 3.705 0 01-2.638 1.093 3.705 3.705 0 01-2.637-1.093zm9.889 7.644a3.734 3.734 0 010-5.274l2.965-2.965a3.944 3.944 0 01.286-.259 3.718 3.718 0 011.654-.768l.043-.006a3.51 3.51 0 01.316-.043c.042-.004.085-.004.128-.007.087-.005.174-.01.261-.01a3.706 3.706 0 012.901 1.452c1.118 1.461.968 3.633-.42 5.021l-2.86 2.86a3.734 3.734 0 01-5.274 0zm45.358-27.135a3.733 3.733 0 01-5.274 0 2.237 2.237 0 00-.166-.149L77.781 50.283a2.431 2.431 0 00-3.457 3.421l15.804 15.969.005.005a3.735 3.735 0 010 5.276 3.705 3.705 0 01-2.637 1.092 3.702 3.702 0 01-2.638-1.093l-10.572-10.68a2.43 2.43 0 10-3.456 3.42l10.41 10.519c.054.066.11.13.171.19a3.735 3.735 0 010 5.275 3.736 3.736 0 01-5.276 0l-5.77-5.831a2.431 2.431 0 10-3.457 3.42l5.61 5.666c.052.067.109.13.17.192a3.735 3.735 0 010 5.275 3.733 3.733 0 01-5.274 0c-.167-.168-.364-.296-.551-.44-.16-.121-.2-.206-.121-.399.08-.195.2-.372.28-.57.09-.219.161-.445.231-.672a8.765 8.765 0 00.315-3.74 8.556 8.556 0 00-3.631-5.918 8.536 8.536 0 00-3.617-1.402c.626-2.762-.126-5.758-2.082-7.825a8.529 8.529 0 00-6.382-2.687c.053-2.233-.76-4.452-2.298-6.078a8.532 8.532 0 00-6.125-2.688 8.741 8.741 0 00-2.075.22 8.527 8.527 0 00-2.842-5.21 8.523 8.523 0 00-5.495-2.085 8.612 8.612 0 00-5.87 2.208l-9.4-12.665 22.486-27.393 7.166 1.96-9.359 16.515a8.535 8.535 0 00-.805 6.527 8.534 8.534 0 004.424 5.388l.03.014a8.537 8.537 0 006.12.59 8.539 8.539 0 005.183-4.046l6.083-10.733 10.86.77 28.917 28.917a3.736 3.736 0 010 5.275zm1.008-11.145L72.735 27.959a2.433 2.433 0 00-1.547-.706l-13.297-.943a2.471 2.471 0 00-2.287 1.227l-6.838 12.068a3.706 3.706 0 01-2.25 1.755 3.706 3.706 0 01-2.834-.35 3.706 3.706 0 01-1.756-2.25 3.702 3.702 0 01.35-2.834l9.128-16.11 3.7-1.064.072-.025 13.806-3.986h16.68l20.825 26.472-6.624 13.873zm9.809-17.69L90.415 12.902l9.828-6.25 17.995 23.374-8.566 7.37z" fill="url(#paint0_linear)"/><defs><linearGradient id="paint0_linear" x1="62" y1=".976" x2="62" y2="99.318" gradientUnits="userSpaceOnUse"><stop stop-color="#CA48F6"/><stop offset="1" stop-color="#2E2094"/></linearGradient></defs></svg>