<svg width="99" height="97" fill="none" xmlns="http://www.w3.org/2000/svg"><path fill-rule="evenodd" clip-rule="evenodd" d="M49.299 11.8a20.138 20.138 0 00-1.526-2.094C38.185-1.729 21.143-3.228 9.707 6.36-1.73 15.947-3.228 32.99 6.36 44.426c6.342 7.565 21.675 12.733 33.977 15.823.362 9.248 1.788 18.392 5.431 23.95 8.18 12.481 24.93 15.968 37.41 7.788 12.482-8.18 15.969-24.93 7.789-37.41-1.164-1.777-2.754-3.492-4.652-5.134 2.379-1.539 4.407-3.21 5.923-5.017 9.587-11.436 8.089-28.479-3.347-38.066-11.436-9.588-28.479-8.09-38.066 3.346a20.16 20.16 0 00-1.526 2.093z" fill="url(#paint0_linear)"/><defs><linearGradient id="paint0_linear" x1="-7" y1="32" x2="145" y2="27" gradientUnits="userSpaceOnUse"><stop stop-color="#4A3BB4"/><stop offset=".72" stop-color="#CA48F6"/></linearGradient></defs></svg>