<svg width="99" height="97" fill="none" xmlns="http://www.w3.org/2000/svg"><path fill-rule="evenodd" clip-rule="evenodd" d="M49.299 11.8a20.139 20.139 0 00-1.526-2.094C38.184-1.729 21.143-3.228 9.706 6.36-1.729 15.947-3.228 32.99 6.36 44.426c6.342 7.565 21.674 12.733 33.977 15.823.362 9.248 1.788 18.392 5.43 23.95 8.181 12.481 24.93 15.968 37.412 7.788 12.481-8.18 15.968-24.93 7.788-37.41-1.164-1.777-2.755-3.492-4.652-5.134 2.378-1.539 4.407-3.21 5.923-5.017 9.587-11.436 8.089-28.479-3.347-38.066-11.436-9.588-28.479-8.09-38.066 3.346-.537.64-1.045 1.34-1.526 2.093z" fill="url(#paint0_linear)"/><defs><linearGradient id="paint0_linear" x1="-7" y1="32" x2="99.004" y2="37.925" gradientUnits="userSpaceOnUse"><stop stop-color="#4A3BB4"/><stop offset=".72" stop-color="#CA48F6"/></linearGradient></defs></svg>