<svg width="124" height="100" viewBox="0 0 124 100" fill="none" xmlns="http://www.w3.org/2000/svg">
<path d="M123.495 28.8839L102.741 1.92351C101.972 0.926374 100.571 0.680402 99.5088 1.35588L86.109 9.87785H68.6327C68.4066 9.87785 68.1815 9.9261 67.9639 9.98949L54.4137 13.89L40.3536 10.0444L26.6917 1.35588C25.6473 0.691755 24.2717 0.916914 23.495 1.87999L0.539264 30.3143C-0.285688 31.3361 -0.149457 32.828 0.845783 33.6841L12.8776 44.0386L23.672 58.585C20.515 61.9482 20.5765 67.2527 23.8612 70.5383C25.3171 71.9933 27.1685 72.8154 29.0729 73.0065C29.0067 73.4379 28.9726 73.8759 28.9726 74.3206C28.9726 76.6157 29.8667 78.7736 31.4891 80.3961C33.1125 82.0195 35.2705 82.9135 37.5656 82.9135C37.5968 82.9135 37.6271 82.9116 37.6573 82.9107C37.6564 82.9693 37.6536 83.027 37.6536 83.0857C37.6536 85.3808 38.5476 87.5387 40.17 89.1621C41.7935 90.7846 43.9514 91.6786 46.2465 91.6786C46.6996 91.6786 47.1481 91.6417 47.588 91.5736C47.7743 93.4846 48.5984 95.3445 50.059 96.8052C51.7335 98.4807 53.934 99.3179 56.1345 99.3179C58.335 99.3179 60.5355 98.4807 62.211 96.8052L63.5251 95.4912L64.0766 95.9358C65.7378 97.545 67.8948 98.3492 70.0518 98.3492C72.2523 98.3492 74.4528 97.5119 76.1273 95.8365C77.8368 94.127 78.6741 91.8707 78.6391 89.6257C80.8831 89.6597 83.1403 88.8234 84.8499 87.1149C86.5575 85.4063 87.3947 83.1519 87.3616 80.9079C89.6993 80.9448 91.9168 80.047 93.5714 78.3923C95.2809 76.6828 96.1182 74.4265 96.0832 72.1816C98.3291 72.2156 100.584 71.3793 102.294 69.6698C105.212 66.7522 105.587 62.2424 103.424 58.9133L111.305 42.4067L123.154 32.2102C124.133 31.3673 124.283 29.9066 123.495 28.8839V28.8839ZM25.9141 6.6244L35.7378 12.8711L14.3676 38.9063L5.804 31.5357L25.9141 6.6244ZM27.3 61.8243L30.2649 58.8593C30.3548 58.7695 30.4494 58.6843 30.5459 58.6049C31.1258 58.1318 31.8278 57.8499 32.5714 57.7827C32.5922 57.7809 32.614 57.7809 32.6348 57.7799C32.7407 57.7714 32.8467 57.7657 32.9536 57.7667C33.9697 57.7809 34.9138 58.1962 35.6139 58.935C36.9875 60.3872 36.9137 62.7599 35.4493 64.2244L32.5742 67.0994C31.1202 68.5535 28.7541 68.5535 27.3 67.0994C25.846 65.6444 25.846 63.2783 27.3 61.8243ZM34.928 76.9572C34.2232 76.2533 33.8353 75.3168 33.8353 74.3206C33.8353 73.3244 34.2232 72.3878 34.928 71.683L40.6771 65.9339C41.7783 64.8327 43.5096 64.5309 44.9173 65.2016C46.3685 65.8932 47.185 67.4684 46.9721 69.053C46.8586 69.8988 46.465 70.6953 45.8614 71.2998L40.2031 76.9572C39.4983 77.662 38.5618 78.0499 37.5656 78.0499C36.5694 78.0499 35.6328 77.662 34.928 76.9572ZM43.6089 85.7223C42.9041 85.0184 42.5162 84.0819 42.5162 83.0857C42.5162 82.0895 42.9041 81.1529 43.6089 80.4481L49.3571 74.699C50.5349 73.5221 52.4242 73.2686 53.8659 74.1077C55.1828 74.874 55.8725 76.3782 55.6464 77.8768C55.5225 78.7008 55.1308 79.4756 54.5414 80.065L48.8841 85.7223C48.1793 86.4271 47.2427 86.815 46.2465 86.815C45.2503 86.815 44.3137 86.4271 43.6089 85.7223ZM53.497 93.3664C52.0429 91.9123 52.0429 89.5462 53.497 88.0922L56.4619 85.1272C56.5518 85.0374 56.6454 84.9532 56.7419 84.8737C56.7447 84.8718 56.7466 84.8699 56.7485 84.868C57.231 84.4764 57.7977 84.2143 58.4022 84.0998C58.4164 84.0979 58.4306 84.0961 58.4448 84.0942C58.5489 84.0752 58.6548 84.0601 58.7608 84.0506C58.8033 84.0469 58.8459 84.0469 58.8894 84.044C58.9765 84.0393 59.0626 84.0336 59.1505 84.0346C60.1656 84.0488 61.1107 84.4631 61.8108 85.2029C61.8969 85.2937 61.9773 85.3884 62.0511 85.4858C63.1693 86.9474 63.0189 89.1186 61.6311 90.5074L58.7712 93.3673C57.3171 94.8214 54.951 94.8204 53.497 93.3664V93.3664ZM98.8551 66.2309C97.401 67.686 95.035 67.685 93.5809 66.2309C93.5279 66.178 93.4721 66.1288 93.4153 66.0824L77.781 50.2834C76.8359 49.3289 75.2967 49.3213 74.3421 50.2664C73.3876 51.2106 73.38 52.7498 74.3242 53.7043L90.1278 69.6726C90.1297 69.6745 90.1316 69.6764 90.1335 69.6783C91.5876 71.1324 91.5876 73.4994 90.1335 74.9535C89.4287 75.6583 88.4921 76.0462 87.4959 76.0462C86.4988 76.0462 85.5622 75.6583 84.8584 74.9535L74.2863 64.2717C73.3422 63.3171 71.8029 63.3095 70.8484 64.2537C69.8938 65.1988 69.8863 66.738 70.8304 67.6926L81.2407 78.2107C81.2937 78.2769 81.3504 78.3403 81.411 78.4009C82.865 79.8549 82.865 82.2219 81.411 83.676C79.956 85.1301 77.589 85.1291 76.1349 83.6751L70.365 77.8446C69.4199 76.89 67.8806 76.8815 66.9261 77.8266C65.9715 78.7708 65.964 80.31 66.9081 81.2645L72.5172 86.9314C72.5702 86.9976 72.6269 87.0619 72.6884 87.1225C74.1425 88.5765 74.1425 90.9435 72.6884 92.3976C71.2344 93.8526 68.8683 93.8517 67.4142 92.3976C67.2468 92.2302 67.05 92.1015 66.8627 91.9577C66.7038 91.8366 66.6621 91.7524 66.7416 91.5594C66.822 91.3636 66.9422 91.1867 67.0226 90.9899C67.1115 90.7704 67.1834 90.5443 67.2534 90.3172C67.6262 89.1158 67.7359 87.8235 67.5684 86.5766C67.2468 84.184 65.9308 82.0252 63.9366 80.6591C62.859 79.9221 61.6121 79.4387 60.3198 79.257C60.9461 76.4946 60.194 73.4994 58.2376 71.4323C56.6274 69.7313 54.4525 68.7767 52.1129 68.7446C52.0278 68.7436 51.9426 68.7436 51.8565 68.7446C51.9086 66.5119 51.0969 64.2934 49.5576 62.6672C47.9465 60.9662 45.7716 60.0116 43.4329 59.9795C42.7376 59.97 42.0356 60.0438 41.3583 60.1999C41.0688 58.1858 40.0537 56.3221 38.5164 54.9891C36.9885 53.6665 35.0671 52.9324 33.0208 52.904C30.8666 52.8728 28.7503 53.6675 27.1506 55.1121L17.7516 42.4474L40.2372 15.0537L47.4035 17.0139L38.0443 33.529C36.9128 35.5261 36.6271 37.8439 37.2392 40.0558C37.8513 42.2686 39.2874 44.1096 41.2845 45.241C41.4094 45.312 41.5352 45.3791 41.6629 45.4435C41.6724 45.4482 41.6818 45.4529 41.6922 45.4577C42.0281 45.6251 42.3734 45.7689 42.7234 45.89C44.3534 46.4548 46.114 46.5163 47.8122 46.0471C50.024 45.435 51.865 43.9979 52.9965 42.0018L59.0786 31.2689L69.9383 32.039L98.856 60.9558C100.309 62.4108 100.309 64.7769 98.8551 66.2309V66.2309ZM99.8626 55.0856L72.7348 27.9587C72.6837 27.9066 72.6298 27.8574 72.574 27.8111C72.1833 27.4856 71.6989 27.2889 71.188 27.2529L57.8914 26.3097C56.9718 26.2463 56.0579 26.7354 55.6038 27.5367L48.7658 39.6045C48.2748 40.4711 47.4754 41.0945 46.5152 41.3603C45.5559 41.6262 44.5493 41.5013 43.6818 41.0103C42.8152 40.5193 42.1917 39.7199 41.9259 38.7597C41.6601 37.7994 41.784 36.7928 42.2759 35.9263L51.4043 19.8161L55.1034 18.7518C55.128 18.7442 55.1516 18.7347 55.1762 18.7272L68.9818 14.7405H85.6625L106.487 41.2128L99.8626 55.0856ZM109.672 37.3964L90.4145 12.9024L100.243 6.65184L118.238 30.0258L109.672 37.3964Z" fill="black"/>
<path d="M123.495 28.8839L102.741 1.92351C101.972 0.926374 100.571 0.680402 99.5088 1.35588L86.109 9.87785H68.6327C68.4066 9.87785 68.1815 9.9261 67.9639 9.98949L54.4137 13.89L40.3536 10.0444L26.6917 1.35588C25.6473 0.691755 24.2717 0.916914 23.495 1.87999L0.539264 30.3143C-0.285688 31.3361 -0.149457 32.828 0.845783 33.6841L12.8776 44.0386L23.672 58.585C20.515 61.9482 20.5765 67.2527 23.8612 70.5383C25.3171 71.9933 27.1685 72.8154 29.0729 73.0065C29.0067 73.4379 28.9726 73.8759 28.9726 74.3206C28.9726 76.6157 29.8667 78.7736 31.4891 80.3961C33.1125 82.0195 35.2705 82.9135 37.5656 82.9135C37.5968 82.9135 37.6271 82.9116 37.6573 82.9107C37.6564 82.9693 37.6536 83.027 37.6536 83.0857C37.6536 85.3808 38.5476 87.5387 40.17 89.1621C41.7935 90.7846 43.9514 91.6786 46.2465 91.6786C46.6996 91.6786 47.1481 91.6417 47.588 91.5736C47.7743 93.4846 48.5984 95.3445 50.059 96.8052C51.7335 98.4807 53.934 99.3179 56.1345 99.3179C58.335 99.3179 60.5355 98.4807 62.211 96.8052L63.5251 95.4912L64.0766 95.9358C65.7378 97.545 67.8948 98.3492 70.0518 98.3492C72.2523 98.3492 74.4528 97.5119 76.1273 95.8365C77.8368 94.127 78.6741 91.8707 78.6391 89.6257C80.8831 89.6597 83.1403 88.8234 84.8499 87.1149C86.5575 85.4063 87.3947 83.1519 87.3616 80.9079C89.6993 80.9448 91.9168 80.047 93.5714 78.3923C95.2809 76.6828 96.1182 74.4265 96.0832 72.1816C98.3291 72.2156 100.584 71.3793 102.294 69.6698C105.212 66.7522 105.587 62.2424 103.424 58.9133L111.305 42.4067L123.154 32.2102C124.133 31.3673 124.283 29.9066 123.495 28.8839V28.8839ZM25.9141 6.6244L35.7378 12.8711L14.3676 38.9063L5.804 31.5357L25.9141 6.6244ZM27.3 61.8243L30.2649 58.8593C30.3548 58.7695 30.4494 58.6843 30.5459 58.6049C31.1258 58.1318 31.8278 57.8499 32.5714 57.7827C32.5922 57.7809 32.614 57.7809 32.6348 57.7799C32.7407 57.7714 32.8467 57.7657 32.9536 57.7667C33.9697 57.7809 34.9138 58.1962 35.6139 58.935C36.9875 60.3872 36.9137 62.7599 35.4493 64.2244L32.5742 67.0994C31.1202 68.5535 28.7541 68.5535 27.3 67.0994C25.846 65.6444 25.846 63.2783 27.3 61.8243ZM34.928 76.9572C34.2232 76.2533 33.8353 75.3168 33.8353 74.3206C33.8353 73.3244 34.2232 72.3878 34.928 71.683L40.6771 65.9339C41.7783 64.8327 43.5096 64.5309 44.9173 65.2016C46.3685 65.8932 47.185 67.4684 46.9721 69.053C46.8586 69.8988 46.465 70.6953 45.8614 71.2998L40.2031 76.9572C39.4983 77.662 38.5618 78.0499 37.5656 78.0499C36.5694 78.0499 35.6328 77.662 34.928 76.9572ZM43.6089 85.7223C42.9041 85.0184 42.5162 84.0819 42.5162 83.0857C42.5162 82.0895 42.9041 81.1529 43.6089 80.4481L49.3571 74.699C50.5349 73.5221 52.4242 73.2686 53.8659 74.1077C55.1828 74.874 55.8725 76.3782 55.6464 77.8768C55.5225 78.7008 55.1308 79.4756 54.5414 80.065L48.8841 85.7223C48.1793 86.4271 47.2427 86.815 46.2465 86.815C45.2503 86.815 44.3137 86.4271 43.6089 85.7223ZM53.497 93.3664C52.0429 91.9123 52.0429 89.5462 53.497 88.0922L56.4619 85.1272C56.5518 85.0374 56.6454 84.9532 56.7419 84.8737C56.7447 84.8718 56.7466 84.8699 56.7485 84.868C57.231 84.4764 57.7977 84.2143 58.4022 84.0998C58.4164 84.0979 58.4306 84.0961 58.4448 84.0942C58.5489 84.0752 58.6548 84.0601 58.7608 84.0506C58.8033 84.0469 58.8459 84.0469 58.8894 84.044C58.9765 84.0393 59.0626 84.0336 59.1505 84.0346C60.1656 84.0488 61.1107 84.4631 61.8108 85.2029C61.8969 85.2937 61.9773 85.3884 62.0511 85.4858C63.1693 86.9474 63.0189 89.1186 61.6311 90.5074L58.7712 93.3673C57.3171 94.8214 54.951 94.8204 53.497 93.3664V93.3664ZM98.8551 66.2309C97.401 67.686 95.035 67.685 93.5809 66.2309C93.5279 66.178 93.4721 66.1288 93.4153 66.0824L77.781 50.2834C76.8359 49.3289 75.2967 49.3213 74.3421 50.2664C73.3876 51.2106 73.38 52.7498 74.3242 53.7043L90.1278 69.6726C90.1297 69.6745 90.1316 69.6764 90.1335 69.6783C91.5876 71.1324 91.5876 73.4994 90.1335 74.9535C89.4287 75.6583 88.4921 76.0462 87.4959 76.0462C86.4988 76.0462 85.5622 75.6583 84.8584 74.9535L74.2863 64.2717C73.3422 63.3171 71.8029 63.3095 70.8484 64.2537C69.8938 65.1988 69.8863 66.738 70.8304 67.6926L81.2407 78.2107C81.2937 78.2769 81.3504 78.3403 81.411 78.4009C82.865 79.8549 82.865 82.2219 81.411 83.676C79.956 85.1301 77.589 85.1291 76.1349 83.6751L70.365 77.8446C69.4199 76.89 67.8806 76.8815 66.9261 77.8266C65.9715 78.7708 65.964 80.31 66.9081 81.2645L72.5172 86.9314C72.5702 86.9976 72.6269 87.0619 72.6884 87.1225C74.1425 88.5765 74.1425 90.9435 72.6884 92.3976C71.2344 93.8526 68.8683 93.8517 67.4142 92.3976C67.2468 92.2302 67.05 92.1015 66.8627 91.9577C66.7038 91.8366 66.6621 91.7524 66.7416 91.5594C66.822 91.3636 66.9422 91.1867 67.0226 90.9899C67.1115 90.7704 67.1834 90.5443 67.2534 90.3172C67.6262 89.1158 67.7359 87.8235 67.5684 86.5766C67.2468 84.184 65.9308 82.0252 63.9366 80.6591C62.859 79.9221 61.6121 79.4387 60.3198 79.257C60.9461 76.4946 60.194 73.4994 58.2376 71.4323C56.6274 69.7313 54.4525 68.7767 52.1129 68.7446C52.0278 68.7436 51.9426 68.7436 51.8565 68.7446C51.9086 66.5119 51.0969 64.2934 49.5576 62.6672C47.9465 60.9662 45.7716 60.0116 43.4329 59.9795C42.7376 59.97 42.0356 60.0438 41.3583 60.1999C41.0688 58.1858 40.0537 56.3221 38.5164 54.9891C36.9885 53.6665 35.0671 52.9324 33.0208 52.904C30.8666 52.8728 28.7503 53.6675 27.1506 55.1121L17.7516 42.4474L40.2372 15.0537L47.4035 17.0139L38.0443 33.529C36.9128 35.5261 36.6271 37.8439 37.2392 40.0558C37.8513 42.2686 39.2874 44.1096 41.2845 45.241C41.4094 45.312 41.5352 45.3791 41.6629 45.4435C41.6724 45.4482 41.6818 45.4529 41.6922 45.4577C42.0281 45.6251 42.3734 45.7689 42.7234 45.89C44.3534 46.4548 46.114 46.5163 47.8122 46.0471C50.024 45.435 51.865 43.9979 52.9965 42.0018L59.0786 31.2689L69.9383 32.039L98.856 60.9558C100.309 62.4108 100.309 64.7769 98.8551 66.2309V66.2309ZM99.8626 55.0856L72.7348 27.9587C72.6837 27.9066 72.6298 27.8574 72.574 27.8111C72.1833 27.4856 71.6989 27.2889 71.188 27.2529L57.8914 26.3097C56.9718 26.2463 56.0579 26.7354 55.6038 27.5367L48.7658 39.6045C48.2748 40.4711 47.4754 41.0945 46.5152 41.3603C45.5559 41.6262 44.5493 41.5013 43.6818 41.0103C42.8152 40.5193 42.1917 39.7199 41.9259 38.7597C41.6601 37.7994 41.784 36.7928 42.2759 35.9263L51.4043 19.8161L55.1034 18.7518C55.128 18.7442 55.1516 18.7347 55.1762 18.7272L68.9818 14.7405H85.6625L106.487 41.2128L99.8626 55.0856ZM109.672 37.3964L90.4145 12.9024L100.243 6.65184L118.238 30.0258L109.672 37.3964Z" fill="url(#paint0_linear)"/>
<defs>
<linearGradient id="paint0_linear" x1="61.9999" y1="0.975616" x2="61.9999" y2="99.3179" gradientUnits="userSpaceOnUse">
<stop stop-color="#CA48F6"/>
<stop offset="1" stop-color="#2E2094"/>
</linearGradient>
</defs>
</svg>
