<svg width="124" height="124" viewBox="0 0 124 124" fill="none" xmlns="http://www.w3.org/2000/svg">
<path d="M62 124C45.4392 124 29.8695 117.551 18.1592 105.841C6.44897 94.1305 0 78.5608 0 62C0 45.4392 6.44921 29.8697 18.1592 18.1592C29.8692 6.44873 45.4392 0 62 0C78.5608 0 94.1305 6.44897 105.841 18.1592C117.551 29.8695 124 45.4392 124 62C124 78.5608 117.551 94.1303 105.841 105.841C94.1308 117.551 78.5608 124 62 124V124ZM62 7.75C32.0865 7.75 7.75 32.0865 7.75 62C7.75 91.9135 32.0865 116.25 62 116.25C91.9135 116.25 116.25 91.9135 116.25 62C116.25 32.0865 91.9135 7.75 62 7.75Z" fill="url(#paint0_linear)"/>
<path d="M62 58.125C56.6583 58.125 52.3125 53.7792 52.3125 48.4375C52.3125 43.0958 56.6583 38.75 62 38.75C67.3417 38.75 71.6875 43.0958 71.6875 48.4375C71.6875 50.5775 73.4223 52.3125 75.5625 52.3125C77.7027 52.3125 79.4375 50.5775 79.4375 48.4375C79.4375 40.1544 73.6303 33.2068 65.875 31.4393V27.125C65.875 24.985 64.1402 23.25 62 23.25C59.8598 23.25 58.125 24.985 58.125 27.125V31.4393C50.3697 33.2068 44.5625 40.1544 44.5625 48.4375C44.5625 58.0526 52.3849 65.875 62 65.875C67.3417 65.875 71.6875 70.2208 71.6875 75.5625C71.6875 80.9042 67.3417 85.25 62 85.25C56.6583 85.25 52.3125 80.9042 52.3125 75.5625C52.3125 73.4225 50.5777 71.6875 48.4375 71.6875C46.2973 71.6875 44.5625 73.4225 44.5625 75.5625C44.5625 83.8456 50.3697 90.7932 58.125 92.5607V96.875C58.125 99.015 59.8598 100.75 62 100.75C64.1402 100.75 65.875 99.015 65.875 96.875V92.5607C73.6303 90.7932 79.4375 83.8456 79.4375 75.5625C79.4375 65.9474 71.6151 58.125 62 58.125Z" fill="url(#paint1_linear)"/>
<defs>
<linearGradient id="paint0_linear" x1="62" y1="0" x2="62" y2="124" gradientUnits="userSpaceOnUse">
<stop stop-color="#CA48F6"/>
<stop offset="1" stop-color="#2E2094"/>
</linearGradient>
<linearGradient id="paint1_linear" x1="62" y1="23.25" x2="62" y2="100.75" gradientUnits="userSpaceOnUse">
<stop stop-color="#CA48F6"/>
<stop offset="1" stop-color="#2E2094"/>
</linearGradient>
</defs>
</svg>
