<svg width="108" height="124" viewBox="0 0 108 124" fill="none" xmlns="http://www.w3.org/2000/svg">
<path d="M107.779 119.924L98.3543 30.1759C98.1566 28.2971 96.5729 26.8705 94.6836 26.8705H76.9699V22.8318C76.9699 10.2428 66.7271 0 54.1381 0C41.5482 0 31.3054 10.2428 31.3054 22.8318V26.8705H13.5917C11.7024 26.8705 10.1187 28.2971 9.92102 30.1759L0.496539 119.924C0.387744 120.964 0.725481 122.002 1.42461 122.779C2.12468 123.556 3.12181 124 4.16719 124H104.107C105.153 124 106.151 123.556 106.85 122.779C107.551 122.002 107.888 120.964 107.779 119.924ZM38.6864 22.8318C38.6864 14.3127 45.6181 7.38103 54.1381 7.38103C62.6572 7.38103 69.5889 14.3127 69.5889 22.8318V26.8705H38.6864V22.8318ZM8.26544 116.619L16.9151 34.2515H31.3054V42.3846C31.3054 44.4224 32.9581 46.0751 34.9959 46.0751C37.0337 46.0751 38.6864 44.4224 38.6864 42.3846V34.2515H69.5889V42.3846C69.5889 44.4224 71.2416 46.0751 73.2794 46.0751C75.3172 46.0751 76.9699 44.4224 76.9699 42.3846V34.2515H91.3602L100.01 116.619H8.26544Z" fill="black"/>
<path d="M107.779 119.924L98.3543 30.1759C98.1566 28.2971 96.5729 26.8705 94.6836 26.8705H76.9699V22.8318C76.9699 10.2428 66.7271 0 54.1381 0C41.5482 0 31.3054 10.2428 31.3054 22.8318V26.8705H13.5917C11.7024 26.8705 10.1187 28.2971 9.92102 30.1759L0.496539 119.924C0.387744 120.964 0.725481 122.002 1.42461 122.779C2.12468 123.556 3.12181 124 4.16719 124H104.107C105.153 124 106.151 123.556 106.85 122.779C107.551 122.002 107.888 120.964 107.779 119.924ZM38.6864 22.8318C38.6864 14.3127 45.6181 7.38103 54.1381 7.38103C62.6572 7.38103 69.5889 14.3127 69.5889 22.8318V26.8705H38.6864V22.8318ZM8.26544 116.619L16.9151 34.2515H31.3054V42.3846C31.3054 44.4224 32.9581 46.0751 34.9959 46.0751C37.0337 46.0751 38.6864 44.4224 38.6864 42.3846V34.2515H69.5889V42.3846C69.5889 44.4224 71.2416 46.0751 73.2794 46.0751C75.3172 46.0751 76.9699 44.4224 76.9699 42.3846V34.2515H91.3602L100.01 116.619H8.26544Z" fill="url(#paint0_linear)"/>
<defs>
<linearGradient id="paint0_linear" x1="54.1377" y1="0" x2="54.1377" y2="124" gradientUnits="userSpaceOnUse">
<stop stop-color="#CA48F6"/>
<stop offset="1" stop-color="#2E2094"/>
</linearGradient>
</defs>
</svg>
