<svg width="124" height="114" viewBox="0 0 124 114" fill="none" xmlns="http://www.w3.org/2000/svg">
<path d="M107.34 16.7915C96.5989 6.05045 82.3116 0.131409 67.1313 0.131409C51.6704 0.131409 37.2045 6.22904 26.4124 17.3017C25.2388 18.5008 25.2643 20.4398 26.4635 21.6389C27.6626 22.8125 29.6016 22.787 30.8007 21.5879C40.4446 11.7144 53.3287 6.28006 67.1313 6.28006C95.1192 6.25455 117.877 29.0122 117.877 57.0001C117.877 84.9879 95.1192 107.746 67.1313 107.746C39.1435 107.746 16.3858 84.9879 16.3858 57.0001V56.3623L21.4374 61.4138C22.0242 62.0006 22.8151 62.3068 23.606 62.3068C24.3969 62.3068 25.1623 62.0006 25.7746 61.4138C26.9737 60.2147 26.9737 58.2757 25.7746 57.0766L15.5183 46.7948C14.3192 45.5957 12.3802 45.5957 11.1811 46.7948L0.899336 57.0766C-0.299779 58.2757 -0.299779 60.2147 0.899336 61.4138C2.09845 62.613 4.03745 62.613 5.23656 61.4138L10.2882 56.3623V57.0001C10.2882 72.1804 16.2072 86.4677 26.9482 97.2087C37.6892 107.95 51.9765 113.869 67.1568 113.869C82.3371 113.869 96.6245 107.95 107.365 97.2087C118.106 86.4677 124 72.1804 124 57.0001C124 41.8198 118.081 27.5325 107.34 16.7915Z" fill="black"/>
<path d="M107.34 16.7915C96.5989 6.05045 82.3116 0.131409 67.1313 0.131409C51.6704 0.131409 37.2045 6.22904 26.4124 17.3017C25.2388 18.5008 25.2643 20.4398 26.4635 21.6389C27.6626 22.8125 29.6016 22.787 30.8007 21.5879C40.4446 11.7144 53.3287 6.28006 67.1313 6.28006C95.1192 6.25455 117.877 29.0122 117.877 57.0001C117.877 84.9879 95.1192 107.746 67.1313 107.746C39.1435 107.746 16.3858 84.9879 16.3858 57.0001V56.3623L21.4374 61.4138C22.0242 62.0006 22.8151 62.3068 23.606 62.3068C24.3969 62.3068 25.1623 62.0006 25.7746 61.4138C26.9737 60.2147 26.9737 58.2757 25.7746 57.0766L15.5183 46.7948C14.3192 45.5957 12.3802 45.5957 11.1811 46.7948L0.899336 57.0766C-0.299779 58.2757 -0.299779 60.2147 0.899336 61.4138C2.09845 62.613 4.03745 62.613 5.23656 61.4138L10.2882 56.3623V57.0001C10.2882 72.1804 16.2072 86.4677 26.9482 97.2087C37.6892 107.95 51.9765 113.869 67.1568 113.869C82.3371 113.869 96.6245 107.95 107.365 97.2087C118.106 86.4677 124 72.1804 124 57.0001C124 41.8198 118.081 27.5325 107.34 16.7915Z" fill="url(#paint0_linear)"/>
<path d="M83.4086 36.3089L45.8024 73.8897C44.6032 75.0888 44.6032 77.0278 45.8024 78.2269C46.3892 78.8137 47.1801 79.1199 47.971 79.1199C48.7619 79.1199 49.5273 78.8137 50.1396 78.2269L87.7459 40.6206C88.945 39.4215 88.945 37.4825 87.7459 36.2834C86.5467 35.1098 84.6077 35.1098 83.4086 36.3089Z" fill="black"/>
<path d="M83.4086 36.3089L45.8024 73.8897C44.6032 75.0888 44.6032 77.0278 45.8024 78.2269C46.3892 78.8137 47.1801 79.1199 47.971 79.1199C48.7619 79.1199 49.5273 78.8137 50.1396 78.2269L87.7459 40.6206C88.945 39.4215 88.945 37.4825 87.7459 36.2834C86.5467 35.1098 84.6077 35.1098 83.4086 36.3089Z" fill="url(#paint1_linear)"/>
<path d="M73.5606 61.6179C69.2999 65.8786 69.2999 72.8437 73.5606 77.1044C75.6272 79.1709 78.3826 80.319 81.3166 80.319C84.2506 80.319 87.006 79.1709 89.0726 77.1044C93.3333 72.8437 93.3333 65.8786 89.0726 61.6179C87.006 59.5514 84.2506 58.4033 81.3166 58.4033C78.3826 58.4033 75.6527 59.5514 73.5606 61.6179ZM84.7353 72.7927C83.8169 73.7111 82.6178 74.1959 81.3166 74.1959C80.0154 74.1959 78.8163 73.6856 77.8978 72.7927C76.0099 70.9047 76.0099 67.8431 77.8978 65.9552C78.8163 65.0367 80.0154 64.5519 81.3166 64.5519C82.6178 64.5519 83.8169 65.0622 84.7353 65.9552C86.6233 67.8431 86.6233 70.9047 84.7353 72.7927Z" fill="black"/>
<path d="M73.5606 61.6179C69.2999 65.8786 69.2999 72.8437 73.5606 77.1044C75.6272 79.1709 78.3826 80.319 81.3166 80.319C84.2506 80.319 87.006 79.1709 89.0726 77.1044C93.3333 72.8437 93.3333 65.8786 89.0726 61.6179C87.006 59.5514 84.2506 58.4033 81.3166 58.4033C78.3826 58.4033 75.6527 59.5514 73.5606 61.6179ZM84.7353 72.7927C83.8169 73.7111 82.6178 74.1959 81.3166 74.1959C80.0154 74.1959 78.8163 73.6856 77.8978 72.7927C76.0099 70.9047 76.0099 67.8431 77.8978 65.9552C78.8163 65.0367 80.0154 64.5519 81.3166 64.5519C82.6178 64.5519 83.8169 65.0622 84.7353 65.9552C86.6233 67.8431 86.6233 70.9047 84.7353 72.7927Z" fill="url(#paint2_linear)"/>
<path d="M53.0481 33.5791C50.1141 33.5791 47.3587 34.7272 45.2921 36.7937C43.2255 38.8603 42.0775 41.6157 42.0775 44.5497C42.0775 47.4837 43.2255 50.2391 45.2921 52.3057C47.3587 54.3722 50.1141 55.5203 53.0481 55.5203C55.9821 55.5203 58.7375 54.3722 60.8041 52.3057C62.8706 50.2391 64.0187 47.4837 64.0187 44.5497C64.0187 41.6157 62.8706 38.8603 60.8041 36.7937C58.712 34.7272 55.9821 33.5791 53.0481 33.5791ZM56.4668 47.9685C55.5484 48.8869 54.3493 49.3717 53.0481 49.3717C51.7469 49.3717 50.5478 48.8614 49.6293 47.9685C48.7109 47.05 48.2261 45.8509 48.2261 44.5497C48.2261 43.2485 48.7364 42.0494 49.6293 41.1309C50.5478 40.2125 51.7469 39.7277 53.0481 39.7277C54.3493 39.7277 55.5484 40.238 56.4668 41.1309C57.3853 42.0494 57.8701 43.2485 57.8701 44.5497C57.8701 45.8254 57.3853 47.05 56.4668 47.9685Z" fill="black"/>
<path d="M53.0481 33.5791C50.1141 33.5791 47.3587 34.7272 45.2921 36.7937C43.2255 38.8603 42.0775 41.6157 42.0775 44.5497C42.0775 47.4837 43.2255 50.2391 45.2921 52.3057C47.3587 54.3722 50.1141 55.5203 53.0481 55.5203C55.9821 55.5203 58.7375 54.3722 60.8041 52.3057C62.8706 50.2391 64.0187 47.4837 64.0187 44.5497C64.0187 41.6157 62.8706 38.8603 60.8041 36.7937C58.712 34.7272 55.9821 33.5791 53.0481 33.5791ZM56.4668 47.9685C55.5484 48.8869 54.3493 49.3717 53.0481 49.3717C51.7469 49.3717 50.5478 48.8614 49.6293 47.9685C48.7109 47.05 48.2261 45.8509 48.2261 44.5497C48.2261 43.2485 48.7364 42.0494 49.6293 41.1309C50.5478 40.2125 51.7469 39.7277 53.0481 39.7277C54.3493 39.7277 55.5484 40.238 56.4668 41.1309C57.3853 42.0494 57.8701 43.2485 57.8701 44.5497C57.8701 45.8254 57.3853 47.05 56.4668 47.9685Z" fill="url(#paint3_linear)"/>
<defs>
<linearGradient id="paint0_linear" x1="62" y1="0.131409" x2="62" y2="113.869" gradientUnits="userSpaceOnUse">
<stop stop-color="#CA48F6"/>
<stop offset="1" stop-color="#2E2094"/>
</linearGradient>
<linearGradient id="paint1_linear" x1="66.7741" y1="35.4064" x2="66.7741" y2="79.1199" gradientUnits="userSpaceOnUse">
<stop stop-color="#CA48F6"/>
<stop offset="1" stop-color="#2E2094"/>
</linearGradient>
<linearGradient id="paint2_linear" x1="81.3166" y1="58.4033" x2="81.3166" y2="80.319" gradientUnits="userSpaceOnUse">
<stop stop-color="#CA48F6"/>
<stop offset="1" stop-color="#2E2094"/>
</linearGradient>
<linearGradient id="paint3_linear" x1="53.0481" y1="33.5791" x2="53.0481" y2="55.5203" gradientUnits="userSpaceOnUse">
<stop stop-color="#CA48F6"/>
<stop offset="1" stop-color="#2E2094"/>
</linearGradient>
</defs>
</svg>
