<svg width="99" height="97" viewBox="0 0 99 97" fill="none" xmlns="http://www.w3.org/2000/svg">
<path fill-rule="evenodd" clip-rule="evenodd" d="M49.2988 11.7994C48.8172 11.0461 48.3089 10.3461 47.7726 9.70643C38.1851 -1.72946 21.1424 -3.22785 9.70654 6.35966C-1.72933 15.9472 -3.22774 32.9899 6.35978 44.4258C12.7019 51.9907 28.0346 57.1594 40.3366 60.2488C40.6988 69.4973 42.1255 78.6415 45.768 84.1992C53.9482 96.6805 70.6976 100.167 83.1789 91.9871C95.6603 83.8069 99.147 67.0575 90.9668 54.5761C89.8028 52.8 88.2125 51.0852 86.3153 49.4426C88.6935 47.9043 90.7223 46.2334 92.2378 44.4258C101.825 32.9899 100.327 15.9472 88.891 6.35966C77.4551 -3.22785 60.4124 -1.72946 50.8249 9.70643C50.2886 10.3461 49.7804 11.0461 49.2988 11.7994Z" fill="url(#paint0_linear)"/>
<defs>
<linearGradient id="paint0_linear" x1="-6.99988" y1="32" x2="145" y2="27" gradientUnits="userSpaceOnUse">
<stop stop-color="#4A3BB4"/>
<stop offset="0.719929" stop-color="#CA48F6"/>
</linearGradient>
</defs>
</svg>
