<svg width="89" height="52" viewBox="0 0 89 52" fill="none" xmlns="http://www.w3.org/2000/svg">
<path d="M12.7995 34.6328V52H0.459686V0.8125H20.8855C24.7995 0.8125 28.2566 1.53906 31.2566 2.99219C34.28 4.42188 36.612 6.47266 38.2527 9.14453C39.9167 11.793 40.7487 14.8047 40.7487 18.1797C40.7487 23.1719 38.9558 27.168 35.3698 30.168C31.8073 33.1445 26.9089 34.6328 20.6745 34.6328H12.7995ZM12.7995 25.1055H20.8855C23.2761 25.1055 25.0925 24.5078 26.3347 23.3125C27.6003 22.1172 28.2331 20.4297 28.2331 18.25C28.2331 15.8594 27.5886 13.9492 26.2995 12.5195C25.0105 11.0898 23.2527 10.3633 21.0261 10.3398H12.7995V25.1055Z" fill="white"/>
<path d="M48.7981 52V0.8125H67.1848C73.7708 0.8125 78.7747 2.01953 82.1966 4.43359C85.6419 6.84766 87.3645 10.3516 87.3645 14.9453C87.3645 17.5938 86.7552 19.8555 85.5364 21.7305C84.3177 23.6055 82.5247 24.9883 80.1575 25.8789C82.8294 26.582 84.8802 27.8945 86.3098 29.8164C87.7395 31.7383 88.4544 34.082 88.4544 36.8477C88.4544 41.8633 86.8606 45.6367 83.6731 48.168C80.5091 50.6758 75.8098 51.9531 69.5755 52H48.7981ZM61.138 30.2383V42.5078H69.2239C71.4505 42.5078 73.1614 42.0039 74.3567 40.9961C75.552 39.9648 76.1497 38.5234 76.1497 36.6719C76.1497 32.4062 74.0286 30.2617 69.7864 30.2383H61.138ZM61.138 22.1523H67.5716C70.2669 22.1289 72.1888 21.6367 73.3372 20.6758C74.4856 19.7148 75.0598 18.2969 75.0598 16.4219C75.0598 14.2656 74.4388 12.7188 73.1966 11.7812C71.9544 10.8203 69.9505 10.3398 67.1848 10.3398H61.138V22.1523Z" fill="#CA48F6"/>
</svg>
