<svg width="99" height="97" viewBox="0 0 99 97" fill="none" xmlns="http://www.w3.org/2000/svg">
<path fill-rule="evenodd" clip-rule="evenodd" d="M49.2987 11.7994C48.8171 11.0461 48.3088 10.3461 47.7725 9.70642C38.185 -1.72947 21.1423 -3.22786 9.70642 6.35965C-1.72946 15.9472 -3.22786 32.9899 6.35965 44.4258C12.7018 51.9907 28.0345 57.1594 40.3365 60.2488C40.6987 69.4973 42.1254 78.6415 45.7679 84.1992C53.9481 96.6805 70.6975 100.167 83.1788 91.9871C95.6602 83.8069 99.1469 67.0575 90.9667 54.5761C89.8027 52.8 88.2124 51.0852 86.3152 49.4426C88.6934 47.9043 90.7222 46.2334 92.2377 44.4258C101.825 32.9899 100.327 15.9472 88.8909 6.35965C77.455 -3.22786 60.4123 -1.72947 50.8248 9.70642C50.2885 10.3461 49.7803 11.0461 49.2987 11.7994Z" fill="url(#paint0_linear)"/>
<defs>
<linearGradient id="paint0_linear" x1="-7" y1="32" x2="99.0042" y2="37.9249" gradientUnits="userSpaceOnUse">
<stop stop-color="#4A3BB4"/>
<stop offset="0.719929" stop-color="#CA48F6"/>
</linearGradient>
</defs>
</svg>
